<?xml version="1.0" encoding="utf-8"?>
<!-- Generator: Adobe Illustrator 25.2.2, SVG Export Plug-In . SVG Version: 6.00 Build 0)  -->
<svg version="1.1" id="Layer_1" xmlns="http://www.w3.org/2000/svg" xmlns:xlink="http://www.w3.org/1999/xlink" x="0px" y="0px"
	 viewBox="0 0 1920 1080" style="enable-background:new 0 0 1920 1080;" xml:space="preserve">
<style type="text/css">
	.st0{opacity:0.25;}
	.st1{clip-path:url(#SVGID_2_);}
	.st2{fill:none;stroke:#00AD95;stroke-width:10;stroke-linecap:round;stroke-miterlimit:10;}
	.st3{fill:none;stroke:#FFAB00;stroke-width:10;stroke-linecap:round;stroke-miterlimit:10;}
	.st4{fill:none;stroke:#E9703C;stroke-width:10;stroke-linecap:round;stroke-miterlimit:10;}
	.st5{fill:none;stroke:#F91650;stroke-width:10;stroke-linecap:round;stroke-miterlimit:10;}
	.st6{fill:none;stroke:#2485AF;stroke-width:10;stroke-linecap:round;stroke-miterlimit:10;}
</style>
<g class="st0">
	<defs>
		<rect id="SVGID_1_" class="st0" width="1920" height="1080"/>
	</defs>
	<clipPath id="SVGID_2_">
		<use xlink:href="#SVGID_1_"  style="overflow:visible;"/>
	</clipPath>
	<g class="st1">
		<path class="st2" d="M371.2,460.6c-35.9,0-65.1-29.1-65.1-65.1c0-35.9,29.1-65.1,65.1-65.1s65.1,29.1,65.1,65.1l0,63.6"/>
		<path class="st3" d="M1609.8,525.7c-35.9,0-65.1-29.1-65.1-65.1c0-35.9,29.1-65.1,65.1-65.1c35.9,0,65.1,29.1,65.1,65.1v63.6"/>
		<path class="st4" d="M1234.4,494.5c35.9,0,65.1,29.1,65.1,65.1s-29.1,65.1-65.1,65.1c-35.9,0-65.1-29.1-65.1-65.1v-235"/>
		<path class="st5" d="M237.2,1021.2c-36.7,0-66.5,29.8-66.5,66.5c0,36.7,29.8,66.5,66.5,66.5s66.5-29.8,66.5-66.5l0-203.3"/>
		<path class="st2" d="M1646.3,844.7c0,38.6,31.3,69.9,69.9,69.9s69.9-31.3,69.9-69.9c0-38.6-31.3-69.9-69.9-69.9l-213.9,0"/>
		<path class="st6" d="M1094.3,26.6c-38.3,0-69.3,31-69.3,69.3s31,69.3,69.3,69.3c38.3,0,69.3-31,69.3-69.3V-116"/>
		<path class="st4" d="M75.3,503.5c-35.9,0-65.1,29.1-65.1,65.1s29.1,65.1,65.1,65.1c35.9,0,65.1-29.1,65.1-65.1l0-217"/>
		<path class="st2" d="M84.6,838.5c-41.1,0-74.4-33.3-74.4-74.4c0-41.1,33.3-74.4,74.4-74.4c41.1,0,74.4,33.3,74.4,74.4l0,227.4"/>
		<path class="st2" d="M1015.9,1022.7c-11.9-15.6-30.7-25.7-51.8-25.7c-35.9,0-65.1,29.1-65.1,65.1l0,100.6"/>
		<path class="st2" d="M1761.1,585.8c-11.9-15.6-30.7-25.7-51.8-25.7c-35.9,0-65.1,29.1-65.1,65.1l0,100.6"/>
		<path class="st4" d="M1734.7,390.8c35.9,0,65.1-29.1,65.1-65.1l0-217"/>
		<path class="st4" d="M690.3,909.8c-74-74-194-74-267.9,0s-74,194,0,267.9c74,74,194,74,267.9,0"/>
		<path class="st2" d="M811.7,1030.3c-25.4-25.4-66.6-25.4-92,0c-25.4,25.4-25.4,66.6,0,92s66.6,25.4,92,0"/>
		<path class="st4" d="M627.7,1108.3c-16.9,18.2-41.1,29.6-67.9,29.6c-51.1,0-92.6-41.4-92.6-92.6c0-51.1,41.4-92.6,92.6-92.6
			c51.1,0,92.6,41.4,92.6,92.6H521"/>
		<path class="st3" d="M325.3,256.6c-28.8,31-69.9,50.4-115.5,50.4c-87,0-157.6-70.5-157.6-157.6S122.7-8.1,209.7-8.1
			s157.6,70.5,157.6,157.6H143.7"/>
		<g>
			<path class="st3" d="M82.9,938.9c-35.9,0-65.1,29.1-65.1,65.1l0,217"/>
			<line class="st3" x1="40.7" y1="1079.9" x2="69.8" y2="1079.9"/>
		</g>
		<g>
			<path class="st5" d="M255.8,334.1c-35.9,0-65.1,29.1-65.1,65.1l0,217"/>
			<line class="st5" x1="213.5" y1="475.1" x2="242.7" y2="475.1"/>
		</g>
		<g>
			<path class="st5" d="M1500.7,675.8c-35.9,0-65.1,29.1-65.1,65.1v177"/>
			<line class="st5" x1="1458.5" y1="806.9" x2="1487.6" y2="806.9"/>
		</g>
		<g>
			<path class="st3" d="M237.2,588.5c0-35.9,29.1-65.1,65.1-65.1s65.1,29.1,65.1,65.1s-29.1,65.1-65.1,65.1"/>
			<path class="st3" d="M237.2,795h116.4c18.1,0,32.8-14.7,32.8-32.8V752c0-18.1-14.7-32.8-32.8-32.8H270
				c-18.1,0-32.8-14.7-32.8-32.8v0c0-18.1,14.7-32.8,32.8-32.8h32.3"/>
		</g>
		<g>
			<path class="st4" d="M1329.3,147.6c-43,0-77.9-34.9-77.9-77.9s34.9-77.9,77.9-77.9s77.9,34.9,77.9,77.9"/>
			<path class="st4" d="M1576.6,147.6V8.1c0-21.7-17.6-39.3-39.3-39.3h-12.3c-21.7,0-39.3,17.6-39.3,39.3v100.2
				c0,21.7-17.6,39.3-39.3,39.3h0c-21.7,0-39.3-17.6-39.3-39.3V69.6"/>
		</g>
		<g>
			<path class="st3" d="M1001.3,314.2v-96.9c0-40.3-32.6-72.9-72.9-72.9h0c-40.3,0-72.9,32.6-72.9,72.9v96.9"/>
			<line class="st3" x1="855.5" y1="217.3" x2="855.5" y2="-16.4"/>
		</g>
		<line class="st2" x1="663.9" y1="400.2" x2="663.9" y2="603.1"/>
		<line class="st2" x1="1232.5" y1="681.5" x2="1232.5" y2="884.4"/>
		<line class="st6" x1="503.6" y1="223.1" x2="503.6" y2="566"/>
		<path class="st2" d="M1065.8,836.4v199.4c0,51.8,42,93.8,93.8,93.8l0,0"/>
		<line class="st2" x1="52.2" y1="275.8" x2="52.2" y2="451.7"/>
		<g>
			<line class="st4" x1="436.3" y1="513.6" x2="436.3" y2="806.7"/>
			<polyline class="st4" points="525,631.8 468.6,712.1 538.6,806.7 			"/>
		</g>
		<g>
			<line class="st4" x1="1535.6" y1="546.5" x2="1535.6" y2="739.4"/>
			<polyline class="st4" points="1594,624.3 1556.9,677.1 1602.9,739.4 			"/>
		</g>
		<g>
			<line class="st5" x1="855.5" y1="733.1" x2="855.5" y2="921.2"/>
			<path class="st5" d="M855.5,926.4v-106c0-38.9,31.5-70.4,70.4-70.4h0c38.9,0,70.4,31.5,70.4,70.4v106"/>
			<path class="st5" d="M996.3,926.4v-106c0-38.9,31.5-70.4,70.4-70.4h0c38.9,0,70.4,31.5,70.4,70.4v106"/>
		</g>
		<path class="st3" d="M569.8,425.1V283.4c0-52,42.1-94.1,94.1-94.1h0c52,0,94.1,42.1,94.1,94.1v141.7"/>
		<path class="st2" d="M1042.9,572.4V653c0,29.6-24,53.5-53.5,53.5h0c-29.6,0-53.5-24-53.5-53.5v-80.6"/>
		<path class="st2" d="M902.4,100.1V49.7c0-18.5,15-33.5,33.5-33.5h0c18.5,0,33.5,15,33.5,33.5v50.4"/>
		<g>
			<path class="st5" d="M1577.6,870.4v76c0,27.9-22.6,50.4-50.4,50.4h0c-27.9,0-50.4-22.6-50.4-50.4v-76"/>
			<path class="st5" d="M1577.6,909.9v134.3c0,27.9-22.6,50.4-50.4,50.4h0c-27.9,0-50.4-22.6-50.4-50.4"/>
		</g>
		<g>
			<path class="st2" d="M1379.9,249.8l-79.9,0c-39.2,0-71,31.8-71,71v0c0,39.2,31.8,71,71,71l79.9,0"/>
			<path class="st2" d="M1351.5,249.8l-189.1,0c-39.2,0-71,31.8-71,71v0"/>
		</g>
		<path class="st3" d="M1371.9,710h-40.4c-32.3,0-58.4,26.2-58.4,58.4v0c0,32.3,26.2,58.4,58.4,58.4h8.5c32.3,0,58.4,26.2,58.4,58.4
			v0.6c0,32.3-26.2,58.4-58.4,58.4h-40.4"/>
		<path class="st5" d="M1439,276.3v40.4c0,32.3,26.2,58.4,58.4,58.4h0c32.3,0,58.4-26.2,58.4-58.4v-8.5c0-32.3,26.2-58.4,58.4-58.4
			h0.6c32.3,0,58.4,26.2,58.4,58.4v40.4"/>
		<circle class="st2" cx="663.9" cy="306" r="45"/>
		<circle class="st5" cx="1137" cy="674.9" r="49.3"/>
		<circle class="st2" cx="170.7" cy="149.5" r="65.4"/>
		<circle class="st5" cx="1799.7" cy="-16.4" r="80"/>
		<g>
			<path class="st6" d="M596.3,524.8v70.5c0,38.9,31.6,70.5,70.5,70.5h0c38.9,0,70.5,31.6,70.5,70.5v70.5"/>
			<path class="st6" d="M737.2,524.8v70.5c0,38.9-31.6,70.5-70.5,70.5h0c-38.9,0-70.5,31.6-70.5,70.5v70.5"/>
		</g>
		<g>
			<path class="st2" d="M1788.5,446.4v63c0,34.8,28.2,63,63,63h0c34.8,0,63,28.2,63,63v63"/>
			<path class="st2" d="M1914.5,446.4v63c0,34.8-28.2,63-63,63h0c-34.8,0-63,28.2-63,63v63"/>
		</g>
		<path class="st6" d="M1091.2,399.3v10.8c0,70-56.7,126.7-126.7,126.7h-119"/>
		<path class="st2" d="M439.5,274.5v-14.4c0-93,75.4-168.3,168.3-168.3h158.1"/>
		<path class="st5" d="M559.3-14.9c-13,31.7-44.1,54-80.4,54s-67.5-22.3-80.4-54"/>
		<path class="st2" d="M766.9-10.9c-10.1,24.6-34.3,42-62.5,42c-28.3,0-52.5-17.4-62.5-42"/>
		<path class="st2" d="M1807,992.6v0.8c0,35.7-28.9,64.6-64.6,64.6h0c-35.7,0-64.6-28.9-64.6-64.6v-0.8"/>
		<path class="st6" d="M1435.6,957.9l-21.2,67.1c-12.9,40.9-64.8,53.2-94.6,22.3l-6.1-6.3c-22.2-23-59.1-23-81.3,0l-6.1,6.3
			c-29.8,30.8-81.7,18.6-94.6-22.3l-21.2-67.1"/>
		<g>
			<path class="st6" d="M1494.2,643v-77c0-32-25.9-57.9-57.9-57.9h0c-32,0-57.9,25.9-57.9,57.9v77"/>
			<line class="st6" x1="1378.4" y1="566" x2="1378.4" y2="452.5"/>
		</g>
		<g>
			<path class="st3" d="M1831.8,165.4h79.7c25.5,0,38.7,30.3,21.5,49l-86,93.3c-17.3,18.7-4,49,21.5,49h109.7"/>
		</g>
		<g>
			<path class="st2" d="M855.4,352h58.4c18.7,0,28.4,22.2,15.7,35.9l-63.1,68.4c-12.7,13.7-2.9,35.9,15.7,35.9h80.4"/>
		</g>
		<g>
			<path class="st3" d="M788.9,613.9v307.8c0,40.6,32.9,73.5,73.5,73.5h0"/>
			<line class="st3" x1="759.3" y1="662.6" x2="851.9" y2="662.6"/>
		</g>
		<g>
			<path class="st5" d="M1846.5,723.9v257.8c0,40.6,32.9,73.5,73.5,73.5h0"/>
			<line class="st5" x1="1816.9" y1="772.6" x2="1909.5" y2="772.6"/>
		</g>
		<circle class="st2" cx="1686.8" cy="165.2" r="45"/>
		<path class="st3" d="M228.1,948.2c-21.1,0-38.3-17.1-38.3-38.3c0-21.1,17.1-38.3,38.3-38.3s38.3,17.1,38.3,38.3v37.4"/>
	</g>
</g>
</svg>
