<?xml version="1.0" encoding="utf-8"?>
<!-- Generator: Adobe Illustrator 25.2.2, SVG Export Plug-In . SVG Version: 6.00 Build 0)  -->
<svg version="1.1" id="Layer_1" xmlns="http://www.w3.org/2000/svg" xmlns:xlink="http://www.w3.org/1999/xlink" x="0px" y="0px"
	 viewBox="0 0 146.4 146.4" style="enable-background:new 0 0 146.4 146.4;" xml:space="preserve">

<g id="Group_34_2_" transform="translate(-3609.74 -4360.24)">
	<line id="Line_8_2_" class="st0" x1="3683" y1="4360.7" x2="3683" y2="4386.9"/>
	<line id="Line_9_2_" class="st0" x1="3683" y1="4480.1" x2="3683" y2="4506.2"/>
	<line id="Line_11_2_" class="st0" x1="3695.6" y1="4361.8" x2="3691" y2="4387.6"/>
	<line id="Line_10_2_" class="st0" x1="3674.9" y1="4479.4" x2="3670.3" y2="4505.1"/>
	<line id="Line_11-2_2_" class="st0" x1="3707.8" y1="4365.1" x2="3698.9" y2="4389.7"/>
	<line id="Line_10-2_2_" class="st0" x1="3667" y1="4477.2" x2="3658.1" y2="4501.8"/>
	<line id="Line_11-3_2_" class="st0" x1="3719.3" y1="4370.5" x2="3706.3" y2="4393.1"/>
	<line id="Line_10-3_2_" class="st0" x1="3659.7" y1="4473.8" x2="3646.6" y2="4496.4"/>
	<line id="Line_11-4_2_" class="st0" x1="3729.7" y1="4377.8" x2="3712.9" y2="4397.8"/>
	<line id="Line_10-4_2_" class="st0" x1="3653" y1="4469.2" x2="3636.2" y2="4489.2"/>
	<line id="Line_11-5_2_" class="st0" x1="3738.7" y1="4386.7" x2="3718.7" y2="4403.5"/>
	<line id="Line_10-5_2_" class="st0" x1="3647.3" y1="4463.4" x2="3627.3" y2="4480.2"/>
	<line id="Line_11-6_2_" class="st0" x1="3745.9" y1="4397.1" x2="3723.3" y2="4410.2"/>
	<line id="Line_10-6_2_" class="st0" x1="3642.6" y1="4456.8" x2="3620" y2="4469.8"/>
	<line id="Line_11-7_2_" class="st0" x1="3751.3" y1="4408.6" x2="3726.7" y2="4417.5"/>
	<line id="Line_10-7_2_" class="st0" x1="3639.2" y1="4449.4" x2="3614.6" y2="4458.3"/>
	<line id="Line_11-8_2_" class="st0" x1="3754.6" y1="4420.8" x2="3728.8" y2="4425.4"/>
	<line id="Line_10-8_2_" class="st0" x1="3637.1" y1="4441.6" x2="3611.3" y2="4446.1"/>
	<line id="Line_11-9_2_" class="st0" x1="3755.7" y1="4433.5" x2="3729.6" y2="4433.5"/>
	<line id="Line_10-9_2_" class="st0" x1="3636.4" y1="4433.5" x2="3610.2" y2="4433.5"/>
	<line id="Line_11-10_2_" class="st0" x1="3754.6" y1="4446.1" x2="3728.8" y2="4441.5"/>
	<line id="Line_10-10_2_" class="st0" x1="3637.1" y1="4425.4" x2="3611.3" y2="4420.8"/>
	<line id="Line_11-11_2_" class="st0" x1="3751.3" y1="4458.3" x2="3726.7" y2="4449.4"/>
	<line id="Line_10-11_2_" class="st0" x1="3639.2" y1="4417.5" x2="3614.6" y2="4408.6"/>
	<line id="Line_11-12_2_" class="st0" x1="3745.9" y1="4469.8" x2="3723.3" y2="4456.8"/>
	<line id="Line_10-12_2_" class="st0" x1="3642.6" y1="4410.2" x2="3620" y2="4397.1"/>
	<line id="Line_11-13_2_" class="st0" x1="3738.7" y1="4480.2" x2="3718.7" y2="4463.4"/>
	<line id="Line_10-13_2_" class="st0" x1="3647.3" y1="4403.5" x2="3627.3" y2="4386.7"/>
	<line id="Line_11-14_2_" class="st0" x1="3729.7" y1="4489.2" x2="3712.9" y2="4469.2"/>
	<line id="Line_10-14_2_" class="st0" x1="3653" y1="4397.8" x2="3636.2" y2="4377.8"/>
	<line id="Line_11-15_2_" class="st0" x1="3719.3" y1="4496.4" x2="3706.3" y2="4473.8"/>
	<line id="Line_10-15_2_" class="st0" x1="3659.7" y1="4393.1" x2="3646.6" y2="4370.5"/>
	<line id="Line_11-16_2_" class="st0" x1="3707.8" y1="4501.8" x2="3698.9" y2="4477.2"/>
	<line id="Line_10-16_2_" class="st0" x1="3667" y1="4389.7" x2="3658.1" y2="4365.1"/>
	<line id="Line_11-17_2_" class="st0" x1="3695.6" y1="4505.1" x2="3691" y2="4479.3"/>
	<line id="Line_10-17_2_" class="st0" x1="3674.9" y1="4387.6" x2="3670.3" y2="4361.8"/>
</g>
</svg>
