<?xml version="1.0" encoding="utf-8"?>
<!-- Generator: Adobe Illustrator 25.2.2, SVG Export Plug-In . SVG Version: 6.00 Build 0)  -->
<svg version="1.1" id="Layer_1" xmlns="http://www.w3.org/2000/svg" xmlns:xlink="http://www.w3.org/1999/xlink" x="0px" y="0px"
	 viewBox="0 0 192.3 236.5" style="enable-background:new 0 0 192.3 236.5;" xml:space="preserve">
<style type="text/css">
	.st0{fill:#F9D54F;}
</style>
<g id="Group_34" transform="translate(-5252.583 -4529.111)">
	<circle id="Ellipse_10" cx="5348.7" cy="4670.2" r="87"/>
</g>
<path id="Path_195" class="st0" d="M175.9,86.6L188,74.5c2.9-2.9,2.9-7.6,0-10.4l-15.8-15.8c-2.9-2.9-7.6-2.9-10.4,0l0,0l-12.2,12.2
	c-12.1-8.1-25.9-13.4-40.4-15.3V32.5h15.6c3.1,0,5.5-2.5,5.5-5.5V5.5c0-3.1-2.5-5.5-5.5-5.5H67.3c-3.1,0-5.5,2.5-5.5,5.5v21.4
	c0,3.1,2.5,5.5,5.5,5.5h15.4v12.7c-14.3,2-28,7.2-40,15.3L30.5,48.2c-2.9-2.9-7.6-2.9-10.4,0L4.2,64c-2.9,2.9-2.9,7.6,0,10.4
	l12.2,12.2c-29.7,44-18,103.8,26,133.5s103.8,18,133.5-26C197.8,161.6,197.8,119.1,175.9,86.6L175.9,86.6z M96.2,226
	c-47.3,0-85.6-38.3-85.6-85.6s38.3-85.6,85.6-85.6s85.6,38.3,85.6,85.6l0,0C181.7,187.6,143.4,226,96.2,226L96.2,226L96.2,226z"/>
</svg>
